<svg xmlns="http://www.w3.org/2000/svg" fill="none" viewBox="0 0 800 800">
  <path fill="#5194EF" fill-rule="evenodd" d="M163.049 32h473.902c45.55 0 62.11 4.7434 78.752 13.6577 16.642 8.9142 29.726 21.9994 38.64 38.6421C763.257 100.942 768 117.463 768 163.056v238.573c0 26.153-31.131 39.783-50.348 22.044L588.457 304.417c-6.515-6.012-14.256-10.54-22.69-13.272-8.433-2.732-17.359-3.603-26.161-2.554-8.803 1.049-17.273 3.995-24.828 8.633-7.555 4.638-14.015 10.859-18.934 18.234L384.225 482.895c-9.081 13.623-27.408 17.448-41.181 8.597l-69.35-44.569c-12.554-8.066-27.618-11.279-42.371-9.036-14.752 2.243-28.181 9.788-37.771 21.221L41.5336 640.377c-3.2583 3.885-9.5315 1.678-9.5336-3.392V163.056c0-45.593 4.7431-62.114 13.6569-78.7562 8.9138-16.6427 21.9982-29.7279 38.64-38.6421C100.939 36.7434 117.458 32 163.049 32Zm368.016 378.032c10.23-15.345 31.753-17.913 45.306-5.406l181.974 167.919c6.154 5.679 9.655 13.673 9.655 22.047v42.352c0 45.553-4.743 62.113-13.657 78.756-8.715 16.464-22.177 29.927-38.64 38.642C699.061 763.257 682.542 768 636.951 768H163.049c-45.591 0-62.11-4.743-78.7521-13.658-12.0699-6.42-12.9333-22.331-4.148-32.806L227.642 545.679c9.706-11.572 26.502-14.124 39.208-5.957l73.698 47.376c13.534 8.697 29.945 11.727 45.693 8.438 15.748-3.289 29.574-12.634 38.497-26.022l106.327-159.482ZM235.954 154.673c-45.387 0-81.287 34.022-81.287 81.292 0 47.311 35.941 82.273 81.287 82.273 46.327 0 82.268-34.962 82.268-82.273 0-47.27-35.941-81.292-82.268-81.292Z" clip-rule="evenodd"/>
</svg>
